<?xml version="1.0" encoding="iso-8859-1"?>
<!-- Generator: Adobe Illustrator 19.0.0, SVG Export Plug-In . SVG Version: 6.00 Build 0)  -->
<svg version="1.1" id="Capa_1" xmlns="http://www.w3.org/2000/svg" xmlns:xlink="http://www.w3.org/1999/xlink" x="0px" y="0px"
	 viewBox="0 0 480 480" style="enable-background:new 0 0 480 480;" xml:space="preserve">
<g>
	<g>
		<path d="M440,416h-19.544c-6.877-0.004-12.452-5.579-12.456-12.456V336c0-4.418-3.582-8-8-8h-64V24c0-13.255-10.745-24-24-24
			s-24,10.745-24,24v304h-37.696l5.144-72H264c4.418,0,8-3.582,8-8v-32c0-4.418-3.582-8-8-8h-88v-8c0-4.418-3.582-8-8-8H72
			c-4.418,0-8,3.582-8,8v8H8c-4.418,0-8,3.582-8,8v32c0,4.418,3.582,8,8,8h8.552L32,472.568c0.299,4.195,3.794,7.443,8,7.432h192
			c3.858-0.026,7.137-2.826,7.768-6.632c7.339,4.338,15.707,6.628,24.232,6.632h176c17.673,0,32-14.327,32-32
			C472,430.327,457.673,416,440,416z M304,24c0-4.418,3.582-8,8-8s8,3.582,8,8v272h-16V24z M304,312h16v16h-16V312z M392,344v16H232
			v-16H392z M80,328h64v-16H80V208h80v136H80V328z M224.856,459.688L224.552,464H47.448L32.592,256H48v-16H16v-16h48v128
			c0,4.418,3.582,8,8,8h96c4.418,0,8-3.582,8-8V224h80v16h-32v16h15.408l-5.144,72H224c-4.418,0-8,3.582-8,8v96
			C216.001,441.926,219.097,451.604,224.856,459.688z M440,464H264c-17.673,0-32-14.327-32-32v-56h16v32h16v-32h16v16h16v-16h32v48
			h16v-48h16v16h16v-16h16v27.544c0.018,15.708,12.747,28.438,28.456,28.456H440c8.837,0,16,7.163,16,16S448.837,464,440,464z"/>
	</g>
</g>
<g>
	<g>
		<rect x="192" y="240" width="16" height="16"/>
	</g>
</g>
<g>
	<g>
		<rect x="248" y="424" width="16" height="16"/>
	</g>
</g>
<g>
	<g>
		<polygon points="32,56 32,40 16,40 16,56 0,56 0,72 16,72 16,88 32,88 32,72 48,72 48,56 		"/>
	</g>
</g>
<g>
	<g>
		<polygon points="200,112 200,96 184,96 184,112 168,112 168,128 184,128 184,144 200,144 200,128 216,128 216,112 		"/>
	</g>
</g>
<g>
	<g>
		<polygon points="464,232 464,216 448,216 448,232 432,232 432,248 448,248 448,264 464,264 464,248 480,248 480,232 		"/>
	</g>
</g>
<g>
	<g>
		<polygon points="424,16 424,0 408,0 408,16 392,16 392,32 408,32 408,48 424,48 424,32 440,32 440,16 		"/>
	</g>
</g>
<g>
</g>
<g>
</g>
<g>
</g>
<g>
</g>
<g>
</g>
<g>
</g>
<g>
</g>
<g>
</g>
<g>
</g>
<g>
</g>
<g>
</g>
<g>
</g>
<g>
</g>
<g>
</g>
<g>
</g>
</svg>
