<?xml version="1.0" encoding="iso-8859-1"?>
<!-- Generator: Adobe Illustrator 19.0.0, SVG Export Plug-In . SVG Version: 6.00 Build 0)  -->
<svg version="1.1" id="Capa_1" xmlns="http://www.w3.org/2000/svg" xmlns:xlink="http://www.w3.org/1999/xlink" x="0px" y="0px"
	 viewBox="0 0 480 480" style="enable-background:new 0 0 480 480;" xml:space="preserve">
<g>
	<g>
		<path d="M440,64V24c0-4.418-3.582-8-8-8h-80c-4.418,0-8,3.582-8,8v40h-16c-2.47-0.002-4.803,1.138-6.32,3.088l-56,72
			c-1.09,1.405-1.682,3.133-1.68,4.912v32h-48v-32c0-1.846-0.639-3.635-1.808-5.064L144,53.144V8c0-4.418-3.582-8-8-8H80
			c-4.418,0-8,3.582-8,8v45.144L1.808,138.936C0.639,140.365,0,142.154,0,144v296c0.026,22.08,17.92,39.974,40,40h400
			c22.08-0.026,39.974-17.92,40-40V104C479.974,81.92,462.08,64.026,440,64z M360,32h64v32h-64V32z M216,224v-32h16v32h16v-32h16v32
			h16v-32h16v48H184v-48h16v32H216z M88,16h40v32H88V16z M16,146.856L83.792,64h48.416L200,146.856V176h-24c-4.418,0-8,3.582-8,8v8
			H16V146.856z M152,464H40c-13.255,0-24-10.745-24-24v-16h136V464z M152,248v160H16v-16h80v-16H16V208h152v32h-8
			C155.582,240,152,243.582,152,248z M312,464H168V256h144V464z M464,440c0,13.255-10.745,24-24,24H328v-40h136V440z M464,408H328
			v-16h88v-16h-88V248c0-4.418-3.582-8-8-8h-8v-56c0-4.418-3.582-8-8-8h-24v-24h184V408z M464,136H288.36l43.552-56H440
			c13.255,0,24,10.745,24,24V136z"/>
	</g>
</g>
<g>
	<g>
		<path d="M240,296c-30.928,0-56,25.072-56,56c0,30.928,25.072,56,56,56c30.928,0,56-25.072,56-56
			C295.965,321.087,270.913,296.035,240,296z M240,392c-15.909-0.017-30.296-9.459-36.64-24.048l12.296-12.296
			c6.821-6.809,17.867-6.809,24.688,0c10.105,10.042,25.468,12.567,38.256,6.288C274.074,379.58,258.208,391.934,240,392z
			 M276.344,344.344c-6.909,6.593-17.779,6.593-24.688,0c-13.072-13.046-34.24-13.046-47.312,0l-4,4
			C202.188,327.803,219.377,312.05,240,312c18.218,0.065,34.09,12.431,38.608,30.08L276.344,344.344z"/>
	</g>
</g>
<g>
	<g>
		<rect x="112" y="376" width="16" height="16"/>
	</g>
</g>
<g>
	<g>
		<rect x="432" y="376" width="16" height="16"/>
	</g>
</g>
<g>
	<g>
		<path d="M432,176h-56c-4.418,0-8,3.582-8,8v56c0,4.418,3.582,8,8,8h56c4.418,0,8-3.582,8-8v-56C440,179.582,436.418,176,432,176z
			 M424,232h-40v-40h40V232z"/>
	</g>
</g>
<g>
</g>
<g>
</g>
<g>
</g>
<g>
</g>
<g>
</g>
<g>
</g>
<g>
</g>
<g>
</g>
<g>
</g>
<g>
</g>
<g>
</g>
<g>
</g>
<g>
</g>
<g>
</g>
<g>
</g>
</svg>
