<?xml version="1.0" encoding="iso-8859-1"?>
<!-- Generator: Adobe Illustrator 19.0.0, SVG Export Plug-In . SVG Version: 6.00 Build 0)  -->
<svg version="1.1" id="Capa_1" xmlns="http://www.w3.org/2000/svg" xmlns:xlink="http://www.w3.org/1999/xlink" x="0px" y="0px"
	 viewBox="0 0 480 480" style="enable-background:new 0 0 480 480;" xml:space="preserve">
<g>
	<g>
		<path d="M472,328h-8V166.168c0.116-36.021-21.833-68.441-55.32-81.712l-84.56-33.824C311.941,45.808,303.958,34.019,304,20.92V0
			h-16v20.92c0.015,8.749,2.427,17.326,6.976,24.8L240,100.688l-54.976-54.976c4.547-7.471,6.96-16.046,6.976-24.792V0h-16v20.92
			c0.042,13.099-7.941,24.888-20.12,29.712L71.32,84.456C37.833,97.727,15.884,130.147,16,166.168V328H8c-4.418,0-8,3.582-8,8v48
			c0,4.418,3.582,8,8,8h8v88h16v-88h56v88h16V194.4l30.656-45.984c0.87-1.309,1.337-2.844,1.344-4.416V75.816l25.832-10.328
			c2.125-0.861,4.186-1.871,6.168-3.024V144c0,4.418,3.582,8,8,8h128c4.418,0,8-3.582,8-8V62.464
			c1.982,1.153,4.043,2.163,6.168,3.024L344,75.816V144c0.003,1.58,0.47,3.124,1.344,4.44L376,194.4V480h16v-88h56v88h16v-88h8
			c4.418,0,8-3.582,8-8v-48C480,331.582,476.418,328,472,328z M88,376H16v-32h72V376z M120,141.6l-30.656,45.984
			c-0.87,1.309-1.337,2.844-1.344,4.416v136H32V166.168c-0.095-29.473,17.864-55.999,45.264-66.856L120,82.216V141.6z M232,136h-48
			V67.336l48,48V136z M296,136h-48v-20.688l48-48V136z M390.656,187.56L360,141.6V82.24l42.736,17.096
			c27.392,10.854,45.349,37.368,45.264,66.832V328h-56V192C391.997,190.42,391.53,188.876,390.656,187.56z M464,376h-72v-32h72V376z
			"/>
	</g>
</g>
<g>
	<g>
		<rect x="144" y="160" width="16" height="16"/>
	</g>
</g>
<g>
	<g>
		<rect x="320" y="160" width="16" height="16"/>
	</g>
</g>
<g>
	<g>
		<rect x="280" y="336" width="16" height="16"/>
	</g>
</g>
<g>
	<g>
		<path d="M336,272H144c-4.418,0-8,3.582-8,8v32c0,4.418,3.582,8,8,8h8v96c0.026,26.499,21.501,47.974,48,48h80
			c26.499-0.026,47.974-21.501,48-48v-96h8c4.418,0,8-3.582,8-8v-32C344,275.582,340.418,272,336,272z M312,416
			c0,17.673-14.327,32-32,32h-80c-17.673,0-32-14.327-32-32v-64h96v-16h-96v-16h144V416z M328,304H152v-16h176V304z"/>
	</g>
</g>
<g>
</g>
<g>
</g>
<g>
</g>
<g>
</g>
<g>
</g>
<g>
</g>
<g>
</g>
<g>
</g>
<g>
</g>
<g>
</g>
<g>
</g>
<g>
</g>
<g>
</g>
<g>
</g>
<g>
</g>
</svg>
