<?xml version="1.0" encoding="iso-8859-1"?>
<!-- Generator: Adobe Illustrator 19.0.0, SVG Export Plug-In . SVG Version: 6.00 Build 0)  -->
<svg version="1.1" id="Capa_1" xmlns="http://www.w3.org/2000/svg" xmlns:xlink="http://www.w3.org/1999/xlink" x="0px" y="0px"
	 viewBox="0 0 480 480" style="enable-background:new 0 0 480 480;" xml:space="preserve">
<g>
	<g>
		<path d="M359.921,470.864L344,359.44V344c0-13.255-10.745-24-24-24h-56V24c0-13.255-10.745-24-24-24s-24,10.745-24,24v296h-56
			c-13.255,0-24,10.745-24,24v15.44l-15.92,111.424c-0.627,4.373,2.409,8.427,6.783,9.055c0.377,0.054,0.757,0.081,1.137,0.081h224
			c4.418,0.001,8-3.581,8.001-7.999C360.002,471.621,359.975,471.241,359.921,470.864z M232.001,24c0-4.418,3.582-8,8-8s8,3.582,8,8
			v264h-16V24z M232.001,304h16v16h-16V304z M152.001,344c0-4.418,3.582-8,8-8h160c4.418,0,8,3.582,8,8v8h-176V344z M312,464v-48
			h-16v48h-16v-16h-16v16h-48v-24h-16v24h-16v-48h-16v48h-30.776l13.712-96h178.128l13.712,96H312z"/>
	</g>
</g>
<g>
	<g>
		<rect x="296" y="384" width="16" height="16"/>
	</g>
</g>
<g>
</g>
<g>
</g>
<g>
</g>
<g>
</g>
<g>
</g>
<g>
</g>
<g>
</g>
<g>
</g>
<g>
</g>
<g>
</g>
<g>
</g>
<g>
</g>
<g>
</g>
<g>
</g>
<g>
</g>
</svg>
