<?xml version="1.0" encoding="iso-8859-1"?>
<!-- Generator: Adobe Illustrator 19.0.0, SVG Export Plug-In . SVG Version: 6.00 Build 0)  -->
<svg version="1.1" id="Capa_1" xmlns="http://www.w3.org/2000/svg" xmlns:xlink="http://www.w3.org/1999/xlink" x="0px" y="0px"
	 viewBox="0 0 475.584 475.584" style="enable-background:new 0 0 475.584 475.584;" xml:space="preserve">
<g>
	<g>
		<path d="M448.968,133.792l26.616-26.616l-11.312-11.312l-26.616,26.616l-84.688-84.688l26.344-26.344L368,0.136L341.656,26.48
			l-10.344-10.344c-3.124-3.123-8.188-3.123-11.312,0l-64,64c-3.123,3.124-3.123,8.188,0,11.312l10.344,10.344l-8,8h-32.408
			c-42.126,0.004-76.276,34.154-76.28,76.28v0.408l-15.032,15.032c-15.211,15.124-24.112,35.46-24.904,56.896l-8.064,8.072
			l-10.344-10.344c-3.124-3.123-8.188-3.123-11.312,0l-64,64c-3.123,3.124-3.123,8.188,0,11.312l10.344,10.344L0,368.136
			l11.312,11.312l26.344-26.344l84.688,84.688L96,464.136l11.312,11.312l26.344-26.344L144,459.448
			c3.124,3.123,8.188,3.123,11.312,0l64-64c3.123-3.124,3.123-8.188,0-11.312l-10.344-10.344l8-8h36.688c13.255,0,24-10.745,24-24
			c-0.026-2.732-0.524-5.438-1.472-8h9.472c13.255,0,24-10.745,24-24c-0.026-2.732-0.524-5.438-1.472-8h9.472
			c13.255,0,24-10.745,24-24c-0.026-2.732-0.524-5.438-1.472-8h9.472c13.206,0.048,23.951-10.619,23.999-23.825
			c0.025-6.848-2.887-13.378-7.999-17.935v-10.928l8-8L384,219.448c3.124,3.123,8.188,3.123,11.312,0l64-64
			c3.123-3.124,3.123-8.188,0-11.312L448.968,133.792z M149.656,442.48L32.968,325.792l52.688-52.688l116.688,116.688
			L149.656,442.48z M349.656,253.792h-64v16h32c4.418,0,8,3.582,8,8s-3.582,8-8,8h-64v16h32c4.418,0,8,3.582,8,8s-3.582,8-8,8h-56
			v16h24c4.418,0,8,3.582,8,8s-3.582,8-8,8h-40c-2.122,0-4.156,0.844-5.656,2.344l-10.344,10.344l-84.688-84.688l10.344-10.344
			c1.5-1.5,2.344-3.534,2.344-5.656c-0.051-18.376,7.252-36.009,20.28-48.968l3.72-3.72v76.688c0,4.418,3.582,8,8,8
			c27.213-0.04,51.048-18.251,58.24-44.496l3.144-11.504h130.616c4.418,0,8,3.582,8,8S354.074,253.792,349.656,253.792z
			 M352,208.136c-1.5,1.5-2.344,3.534-2.344,5.656v8H223.4l4.368-16h1.888c22.08-0.026,39.974-17.92,40-40h-16
			c0,13.255-10.745,24-24,24h-8c-3.609-0.001-6.771,2.414-7.72,5.896l-13.472,49.408c-4.51,16.457-18.031,28.887-34.808,32v-91.024
			c0-33.292,26.988-60.28,60.28-60.28h35.72c2.122,0,4.156-0.844,5.656-2.344l10.344-10.344l84.688,84.688L352,208.136z
			 M389.656,202.48L272.968,85.792l52.688-52.688l116.688,116.688L389.656,202.48z"/>
	</g>
</g>
<g>
	<g>
		<rect x="149.699" y="389.794" transform="matrix(0.7071 -0.7071 0.7071 0.7071 -235.0904 228.0125)" width="16" height="16"/>
	</g>
</g>
<g>
	<g>
		<rect x="309.655" y="69.766" transform="matrix(0.7071 -0.7071 0.7071 0.7071 38.0501 247.3926)" width="16" height="16"/>
	</g>
</g>
<g>
</g>
<g>
</g>
<g>
</g>
<g>
</g>
<g>
</g>
<g>
</g>
<g>
</g>
<g>
</g>
<g>
</g>
<g>
</g>
<g>
</g>
<g>
</g>
<g>
</g>
<g>
</g>
<g>
</g>
</svg>
