<?xml version="1.0" encoding="iso-8859-1"?>
<!-- Generator: Adobe Illustrator 19.0.0, SVG Export Plug-In . SVG Version: 6.00 Build 0)  -->
<svg version="1.1" id="Capa_1" xmlns="http://www.w3.org/2000/svg" xmlns:xlink="http://www.w3.org/1999/xlink" x="0px" y="0px"
	 viewBox="0 0 480 480" style="enable-background:new 0 0 480 480;" xml:space="preserve">
<g>
	<g>
		<path d="M440,32H40c-4.418,0-8,3.582-8,8v400c0,4.418,3.582,8,8,8h400c4.418,0,8-3.582,8-8V40C448,35.582,444.418,32,440,32z
			 M432,432H48V48h384V432z"/>
	</g>
</g>
<g>
	<g>
		<path d="M472,0H8C3.582,0,0,3.582,0,8v464c0,4.418,3.582,8,8,8h464c4.418,0,8-3.582,8-8V8C480,3.582,476.418,0,472,0z M464,464H16
			V16h448V464z"/>
	</g>
</g>
<g>
	<g>
		<path d="M152,336h-24V158.864c17.046-4.339,27.347-21.674,23.009-38.719c-2.877-11.304-11.704-20.131-23.009-23.009V64h-16v33.136
			c-17.046,4.339-27.347,21.674-23.008,38.719c2.877,11.304,11.704,20.131,23.008,23.009V336H88c-4.418,0-8,3.582-8,8v64
			c0,4.418,3.582,8,8,8h64c4.418,0,8-3.582,8-8v-64C160,339.582,156.418,336,152,336z M104,128c0-8.837,7.163-16,16-16
			s16,7.163,16,16s-7.163,16-16,16S104,136.837,104,128z M144,400H96v-16h48V400z M144,368H96v-16h48V368z"/>
	</g>
</g>
<g>
	<g>
		<path d="M272,336h-24v-65.136c17.046-4.339,27.347-21.674,23.009-38.719c-2.877-11.304-11.704-20.131-23.009-23.009V64h-16
			v145.136c-17.046,4.338-27.347,21.674-23.009,38.719c2.877,11.304,11.704,20.131,23.009,23.009V336h-24c-4.418,0-8,3.582-8,8v64
			c0,4.418,3.582,8,8,8h64c4.418,0,8-3.582,8-8v-64C280,339.582,276.418,336,272,336z M224,240c0-8.837,7.163-16,16-16
			s16,7.163,16,16s-7.163,16-16,16S224,248.837,224,240z M264,400h-48v-16h48V400z M264,368h-48v-16h48V368z"/>
	</g>
</g>
<g>
	<g>
		<path d="M392,336h-24V206.864c17.046-4.339,27.347-21.674,23.009-38.719c-2.877-11.304-11.704-20.131-23.009-23.009V64h-16v81.136
			c-17.046,4.339-27.347,21.674-23.008,38.719c2.877,11.304,11.704,20.131,23.008,23.009V336h-24c-4.418,0-8,3.582-8,8v64
			c0,4.418,3.582,8,8,8h64c4.418,0,8-3.582,8-8v-64C400,339.582,396.418,336,392,336z M344,176c0-8.837,7.163-16,16-16
			s16,7.163,16,16s-7.163,16-16,16S344,184.837,344,176z M384,400h-48v-16h48V400z M384,368h-48v-16h48V368z"/>
	</g>
</g>
<g>
	<g>
		<rect x="144" y="64" width="16" height="16"/>
	</g>
</g>
<g>
	<g>
		<rect x="80" y="64" width="16" height="16"/>
	</g>
</g>
<g>
	<g>
		<rect x="264" y="64" width="16" height="16"/>
	</g>
</g>
<g>
	<g>
		<rect x="200" y="64" width="16" height="16"/>
	</g>
</g>
<g>
	<g>
		<rect x="384" y="64" width="16" height="16"/>
	</g>
</g>
<g>
	<g>
		<rect x="320" y="64" width="16" height="16"/>
	</g>
</g>
<g>
</g>
<g>
</g>
<g>
</g>
<g>
</g>
<g>
</g>
<g>
</g>
<g>
</g>
<g>
</g>
<g>
</g>
<g>
</g>
<g>
</g>
<g>
</g>
<g>
</g>
<g>
</g>
<g>
</g>
</svg>
