<?xml version="1.0" encoding="iso-8859-1"?>
<!-- Generator: Adobe Illustrator 19.0.0, SVG Export Plug-In . SVG Version: 6.00 Build 0)  -->
<svg version="1.1" id="Capa_1" xmlns="http://www.w3.org/2000/svg" xmlns:xlink="http://www.w3.org/1999/xlink" x="0px" y="0px"
	 viewBox="0 0 448.003 448.003" style="enable-background:new 0 0 448.003 448.003;" xml:space="preserve">
<g>
	<g>
		<path d="M376.001,32h-304c-4.418,0-8,3.582-8,8v336c-0.001,3.22,1.928,6.127,4.896,7.376l152,64c1.985,0.836,4.223,0.836,6.208,0
			l152-64c2.968-1.249,4.897-4.156,4.896-7.376V40C384.001,35.582,380.42,32,376.001,32z M368.001,370.688l-144,60.632l-144-60.632
			V48h288V370.688z"/>
	</g>
</g>
<g>
	<g>
		<path d="M57.793,398.848c-5.956-2.491-9.822-8.328-9.792-14.784V288h-16v96.064c-0.034,12.896,7.691,24.548,19.584,29.536
			l65.312,27.496l6.208-14.744L57.793,398.848z"/>
	</g>
</g>
<g>
	<g>
		<path d="M344.001,64h-240c-4.418,0-8,3.582-8,8v280c-0.003,3.272,1.987,6.215,5.024,7.432l120,48c1.912,0.757,4.04,0.757,5.952,0
			l120-48c3.037-1.217,5.026-4.16,5.024-7.432V72C352.001,67.582,348.42,64,344.001,64z M112.001,80h104v48.72
			c-23.066,3.919-39.957,23.883-40,47.28v16h-16c-4.418,0-8,3.582-8,8v32h-40V80z M224.001,144c17.673,0,32,14.327,32,32v16h-64v-16
			C192.001,158.327,206.328,144,224.001,144z M216.001,388.184l-104-41.6V248h40v64c0,4.418,3.582,8,8,8h56V388.184z M168.001,304
			v-96h16h96v96H168.001z M336.001,346.584l-104,41.6V320h56c4.418,0,8-3.582,8-8v-64h40V346.584z M336.001,232h-40v-32
			c0-4.418-3.582-8-8-8h-16v-16c-0.043-23.397-16.934-43.361-40-47.28V80h104V232z"/>
	</g>
</g>
<g>
	<g>
		<rect x="32.001" y="256" width="16" height="16"/>
	</g>
</g>
<g>
	<g>
		<path d="M384.001,0h-24v16h24c8.837,0,16,7.163,16,16v120h16V32C416.001,14.327,401.675,0,384.001,0z"/>
	</g>
</g>
<g>
	<g>
		<rect x="400.001" y="168" width="16" height="16"/>
	</g>
</g>
<g>
	<g>
		<path d="M246.629,239.901c-4.418-12.497-18.131-19.046-30.627-14.627s-19.046,18.131-14.627,30.627
			c2.416,6.835,7.793,12.211,14.627,14.627V288h16v-17.472C244.498,266.11,251.047,252.397,246.629,239.901z M224.001,256
			c-4.418,0-8-3.582-8-8s3.582-8,8-8s8,3.582,8,8S228.42,256,224.001,256z"/>
	</g>
</g>
<g>
</g>
<g>
</g>
<g>
</g>
<g>
</g>
<g>
</g>
<g>
</g>
<g>
</g>
<g>
</g>
<g>
</g>
<g>
</g>
<g>
</g>
<g>
</g>
<g>
</g>
<g>
</g>
<g>
</g>
</svg>
